<svg width="33" height="33" viewBox="0 0 33 24" fill="none" xmlns="http://www.w3.org/2000/svg">
<path d="M15.5 6V18C15.5 18.5933 15.6759 19.1734 16.0056 19.6667C16.3352 20.1601 16.8038 20.5446 17.352 20.7716C17.9001 20.9987 18.5033 21.0581 19.0853 20.9424C19.6672 20.8266 20.2018 20.5409 20.6213 20.1213C21.0409 19.7018 21.3266 19.1672 21.4424 18.5853C21.5581 18.0033 21.4987 17.4001 21.2716 16.852C21.0446 16.3038 20.6601 15.8352 20.1667 15.5056C19.6734 15.1759 19.0933 15 18.5 15H6.5C5.90666 15 5.32664 15.1759 4.83329 15.5056C4.33994 15.8352 3.95543 16.3038 3.72836 16.852C3.5013 17.4001 3.44189 18.0033 3.55765 18.5853C3.6734 19.1672 3.95912 19.7018 4.37868 20.1213C4.79824 20.5409 5.33279 20.8266 5.91473 20.9424C6.49667 21.0581 7.09987 20.9987 7.64805 20.7716C8.19623 20.5446 8.66477 20.1601 8.99441 19.6667C9.32405 19.1734 9.5 18.5933 9.5 18V6C9.5 5.40666 9.32405 4.82664 8.99441 4.33329C8.66477 3.83994 8.19623 3.45543 7.64805 3.22836C7.09987 3.0013 6.49667 2.94189 5.91473 3.05765C5.33279 3.1734 4.79824 3.45912 4.37868 3.87868C3.95912 4.29824 3.6734 4.83279 3.55765 5.41473C3.44189 5.99667 3.5013 6.59987 3.72836 7.14805C3.95543 7.69623 4.33994 8.16477 4.83329 8.49441C5.32664 8.82405 5.90666 9 6.5 9H18.5C19.0933 9 19.6734 8.82405 20.1667 8.49441C20.6601 8.16477 21.0446 7.69623 21.2716 7.14805C21.4987 6.59987 21.5581 5.99667 21.4424 5.41473C21.3266 4.83279 21.0409 4.29824 20.6213 3.87868C20.2018 3.45912 19.6672 3.1734 19.0853 3.05765C18.5033 2.94189 17.9001 3.0013 17.352 3.22836C16.8038 3.45543 16.3352 3.83994 16.0056 4.33329C15.6759 4.82664 15.5 5.40666 15.5 6Z" stroke="white" stroke-linecap="round" stroke-linejoin="round"/>
</svg>
